<?xml version="1.0" encoding="UTF-8"?>
<svg xmlns="http://www.w3.org/2000/svg" viewBox="0 0 657.91 1000.14">
  <defs>
    <style>
      .cls-1 {
        stroke: #d6d6d6;
      }

      .cls-1, .cls-2, .cls-3 {
        fill: none;
        stroke-miterlimit: 10;
        stroke-width: 4px;
      }

      .cls-2 {
        stroke: #d7d7d6;
      }

      .cls-3 {
        stroke: #9f9f9e;
      }

      .cls-4 {
        fill: #d7d7d6;
        font-family: Koulen-Regular, Koulen;
        font-size: 32px;
      }

      .cls-5 {
        fill: #ececec;
      }
    </style>
  </defs>
  <g id="background">
    <rect class="cls-5" x=".46" width="2013.28" height="1000.14"/>
  </g>
  <g id="_" data-name="0">
    <g id="room">
      <rect id="i-52" class="cls-2" x="181.8" y="733.67" width="82.84" height="106.44"/>
      <rect id="i-51" class="cls-2" x="181.63" y="578.35" width="82.84" height="155.33"/>
      <rect id="i-50" class="cls-1" x="181.63" y="424.58" width="82.84" height="153.76"/>
      <rect id="i-53" class="cls-2" x="181.63" y="839.86" width="82.84" height="98.07"/>
      <rect id="i-55" class="cls-2" x="314.72" y="906.69" width="99.14" height="79.45"/>
      <rect id="i-55-2" data-name="i-55" class="cls-2" x="314.38" y="786.13" width="105.22" height="94.34"/>
      <rect id="i-56" class="cls-2" x="482.44" y="840.03" width="88.95" height="97.9"/>
      <rect id="i-57" class="cls-2" x="482.44" y="733.67" width="88.95" height="106.42"/>
      <rect id="i-58" class="cls-2" x="482.44" y="630.55" width="88.95" height="102.37"/>
      <rect id="i-59" class="cls-2" x="482.44" y="527.93" width="88.95" height="102.62"/>
      <rect id="i-60" class="cls-2" x="482.44" y="423.9" width="88.95" height="104.03"/>
      <polygon id="amphi-p" class="cls-2" points="342.02 439.8 342.02 452.02 308.04 458.39 308.04 640.6 321.17 640.6 321.17 662.62 423.28 662.62 423.28 640.6 441.24 640.6 441.24 458.39 407.38 452.02 407.38 439.8 342.02 439.8"/>
    </g>
    <path id="buildingPath" class="cls-3" d="M310.78,214.62l-.17,13.04H13.91v133.77H180.27v26.48h126.98v36.67h-125.62V937.93h82.84v-31.24h50.25v79.45h99.14v-79.45h68.58v31.24h88.95V423.9h-123.58v-61.11h200.31V224.95h-200.31V4.94h-133.09V175.69h-5.72c-10.75,0-19.47,8.71-19.47,19.47h0c0,10.75,8.71,19.47,19.47,19.47h1.78Z"/>
    <polygon id="buildingHole" class="cls-3" points="464.53 880.47 419.6 880.47 419.6 786.13 314.38 786.13 314.38 880.47 282.72 880.47 282.72 640.6 321.17 640.6 321.17 662.51 423.28 662.51 423.28 640.6 464.53 640.6 464.53 880.47"/>
    <g id="text">
      <text class="cls-4" transform="translate(200.99 800.1)"><tspan x="0" y="0">I-52</tspan></text>
      <text class="cls-4" transform="translate(204.65 669.34)"><tspan x="0" y="0">I-51</tspan></text>
      <text class="cls-4" transform="translate(200.06 515.17)"><tspan x="0" y="0">I-50</tspan></text>
      <text class="cls-4" transform="translate(200.88 902.6)"><tspan x="0" y="0">I-53</tspan></text>
      <text class="cls-4" transform="translate(344.49 846.94)"><tspan x="0" y="0">I-54</tspan></text>
      <text class="cls-4" transform="translate(342.24 959.99)"><tspan x="0" y="0">I-55</tspan></text>
      <text class="cls-4" transform="translate(504.01 902.6)"><tspan x="0" y="0">I-56</tspan></text>
      <text class="cls-4" transform="translate(504.4 800.23)"><tspan x="0" y="0">I-57</tspan></text>
      <text class="cls-4" transform="translate(504.61 695.44)"><tspan x="0" y="0">I-58</tspan></text>
      <text class="cls-4" transform="translate(504.1 592.95)"><tspan x="0" y="0">I-59</tspan></text>
      <text class="cls-4" transform="translate(502.99 489.69)"><tspan x="0" y="0">I-60</tspan></text>
      <text class="cls-4" transform="translate(329.24 553.91)"><tspan x="0" y="0">Amphi p</tspan></text>
    </g>
  </g>
</svg>