<?xml version="1.0" encoding="UTF-8"?>
<svg data-name="0" id="_" viewBox="0 0 657.91 1000.14" xmlns="http://www.w3.org/2000/svg">
    <defs>
        <style>
            .cls-1 {
            stroke: #d6d6d6;
            }

            .cls-1, .cls-2, .cls-3 {
            fill: none;
            stroke-miterlimit: 10;
            stroke-width: 4px;
            }

            .cls-4 {
            fill: #d7d7d6;
            }

            .cls-2 {
            stroke: #d7d7d6;
            }

            .cls-3 {
            stroke: #9f9f9e;
            }
        </style>
    </defs>
    <g id="room">
        <rect class="cls-2" height="106.44" id="i-52" width="82.84" x="181.8" y="733.67" />
        <rect class="cls-2" height="155.33" id="i-51" width="82.84" x="181.63" y="578.35" />
        <rect class="cls-1" height="153.76" id="i-50" width="82.84" x="181.63" y="424.58" />
        <rect class="cls-2" height="98.07" id="i-53" width="82.84" x="181.63" y="839.86" />
        <rect class="cls-2" height="79.45" id="i-55" width="99.14" x="314.72" y="906.69" />
        <rect class="cls-2" data-name="i-55" height="94.34" id="i-55-2" width="105.22" x="314.38"
            y="786.13" />
        <rect class="cls-2" height="97.9" id="i-56" width="88.95" x="482.44" y="840.03" />
        <rect class="cls-2" height="106.42" id="i-57" width="88.95" x="482.44" y="733.67" />
        <rect class="cls-2" height="102.37" id="i-58" width="88.95" x="482.44" y="630.55" />
        <rect class="cls-2" height="102.62" id="i-59" width="88.95" x="482.44" y="527.93" />
        <rect class="cls-2" height="104.03" id="i-60" width="88.95" x="482.44" y="423.9" />
        <polygon class="cls-2" id="amphi-p"
            points="342.02 439.8 342.02 452.02 308.04 458.39 308.04 640.6 321.17 640.6 321.17 662.62 423.28 662.62 423.28 640.6 441.24 640.6 441.24 458.39 407.38 452.02 407.38 439.8 342.02 439.8" />
    </g>
    <path class="cls-3"
        d="M310.78,214.62l-.17,13.04H13.91v133.77H180.27v26.48h126.98v36.67h-125.62V937.93h82.84v-31.24h50.25v79.45h99.14v-79.45h68.58v31.24h88.95V423.9h-123.58v-61.11h200.31V224.95h-200.31V4.94h-133.09V175.69h-5.72c-10.75,0-19.47,8.71-19.47,19.47h0c0,10.75,8.71,19.47,19.47,19.47h1.78Z"
        id="buildingPath" />
    <polygon class="cls-3" id="buildingHole"
        points="464.53 880.47 419.6 880.47 419.6 786.13 314.38 786.13 314.38 880.47 282.72 880.47 282.72 640.6 321.17 640.6 321.17 662.51 423.28 662.51 423.28 640.6 464.53 640.6 464.53 880.47" />
    <g id="text">
        <g>
            <path class="cls-4"
                d="M206.03,800.1h-3.62c-.1,0-.16-.05-.16-.16l.03-21.98c0-.08,.04-.12,.12-.12h3.59c.08,0,.12,.04,.12,.12l.03,21.98c0,.1-.04,.16-.12,.16Z" />
            <path class="cls-4"
                d="M215.42,790.85h-6.19c-.1,0-.16-.04-.16-.12v-3.48c0-.08,.05-.12,.16-.12h6.19c.1,0,.16,.04,.16,.12v3.48c0,.08-.05,.12-.16,.12Z" />
            <path class="cls-4"
                d="M224.39,800.41c-1.14,0-2.18-.29-3.12-.86-.96-.57-1.73-1.33-2.3-2.28-.58-.95-.87-1.98-.87-3.09v-.95c0-.09,.05-.14,.16-.14h3.62c.08,0,.12,.05,.12,.14v.73c0,.72,.23,1.33,.7,1.82,.47,.5,1.03,.74,1.69,.74s1.23-.25,1.69-.76c.46-.5,.69-1.11,.69-1.8v-2.17c0-.67-.24-1.22-.72-1.67-.48-.45-1.07-.67-1.78-.67-.92,0-1.67,.37-2.27,1.09l-.06,.09-3.42-.27c-.11,0-.17-.05-.17-.16l.39-8.77,.19-3.48c0-.08,.04-.12,.12-.12h10.77c.08,0,.12,.04,.12,.12v3.48c0,.1-.04,.16-.12,.16h-7.5l-.16,4.42c.26-.12,.6-.23,1.02-.32,.42-.09,.79-.13,1.12-.13,1.16,0,2.22,.28,3.19,.84,.97,.57,1.74,1.33,2.32,2.27s.87,1.97,.87,3.11v2.17c0,1.16-.28,2.23-.84,3.22-.57,.98-1.33,1.76-2.28,2.35-.95,.59-2,.88-3.16,.88Z" />
            <path class="cls-4"
                d="M243.99,800.1h-11.94c-.1,0-.16-.05-.16-.16v-3.62s.02-.08,.06-.12l7.91-10.84c.15-.2,.27-.45,.37-.76,.1-.31,.15-.58,.15-.8,0-.62-.22-1.2-.67-1.72-.45-.52-1.02-.78-1.7-.78s-1.21,.25-1.67,.75c-.46,.5-.69,1.14-.69,1.91v1.56c0,.1-.05,.16-.16,.16h-3.59c-.08,0-.12-.05-.12-.16v-1.56c0-1.2,.3-2.29,.89-3.27,.58-.98,1.35-1.76,2.3-2.34,.95-.58,1.96-.87,3.05-.87,1.15,0,2.19,.29,3.14,.88,.94,.59,1.69,1.37,2.26,2.33,.57,.96,.85,2,.85,3.11,0,.7-.12,1.41-.37,2.13-.25,.72-.58,1.37-1.01,1.93l-6.08,8.34h7.19c.09,0,.14,.04,.14,.12v3.62c0,.1-.05,.16-.14,.16Z" />
        </g>
        <g>
            <path class="cls-4"
                d="M209.7,669.34h-3.62c-.1,0-.16-.05-.16-.16l.03-21.98c0-.08,.04-.12,.12-.12h3.59c.08,0,.12,.04,.12,.12l.03,21.98c0,.1-.04,.16-.12,.16Z" />
            <path class="cls-4"
                d="M219.09,660.09h-6.19c-.1,0-.16-.04-.16-.12v-3.48c0-.08,.05-.12,.16-.12h6.19c.1,0,.16,.04,.16,.12v3.48c0,.08-.05,.12-.16,.12Z" />
            <path class="cls-4"
                d="M228.06,669.66c-1.14,0-2.18-.29-3.12-.86-.96-.57-1.73-1.33-2.3-2.28-.58-.95-.87-1.98-.87-3.09v-.95c0-.09,.05-.14,.16-.14h3.62c.08,0,.12,.05,.12,.14v.73c0,.72,.23,1.33,.7,1.82,.47,.5,1.03,.74,1.69,.74s1.23-.25,1.69-.76c.46-.5,.69-1.11,.69-1.8v-2.17c0-.67-.24-1.22-.72-1.67-.48-.45-1.07-.67-1.78-.67-.92,0-1.67,.36-2.27,1.09l-.06,.09-3.42-.27c-.11,0-.17-.05-.17-.16l.39-8.77,.19-3.48c0-.08,.04-.12,.12-.12h10.77c.08,0,.12,.04,.12,.12v3.48c0,.1-.04,.16-.12,.16h-7.5l-.16,4.42c.26-.12,.6-.23,1.02-.32,.42-.09,.79-.13,1.12-.13,1.16,0,2.22,.28,3.19,.84,.97,.57,1.74,1.33,2.32,2.27s.87,1.97,.87,3.11v2.17c0,1.16-.28,2.23-.84,3.22-.57,.98-1.33,1.76-2.28,2.35-.95,.59-2,.88-3.16,.88Z" />
            <path class="cls-4"
                d="M239.95,669.34h-3.62c-.1,0-.16-.05-.16-.16l.03-21.98c0-.08,.04-.12,.12-.12h3.59c.08,0,.12,.04,.12,.12l.03,21.98c0,.1-.04,.16-.12,.16Z" />
        </g>
        <g>
            <path class="cls-4"
                d="M205.11,515.17h-3.62c-.1,0-.16-.05-.16-.16l.03-21.98c0-.08,.04-.12,.12-.12h3.59c.08,0,.12,.04,.12,.12l.03,21.98c0,.1-.04,.16-.12,.16Z" />
            <path class="cls-4"
                d="M214.5,505.92h-6.19c-.1,0-.16-.04-.16-.12v-3.48c0-.08,.05-.12,.16-.12h6.19c.1,0,.16,.04,.16,.12v3.48c0,.08-.05,.12-.16,.12Z" />
            <path class="cls-4"
                d="M223.47,515.49c-1.14,0-2.18-.29-3.12-.86-.96-.57-1.73-1.33-2.3-2.28-.58-.95-.87-1.98-.87-3.09v-.95c0-.09,.05-.14,.16-.14h3.62c.08,0,.12,.05,.12,.14v.73c0,.72,.23,1.33,.7,1.82,.47,.5,1.03,.74,1.69,.74s1.23-.25,1.69-.76c.46-.5,.69-1.11,.69-1.8v-2.17c0-.67-.24-1.22-.72-1.67-.48-.45-1.07-.67-1.78-.67-.92,0-1.67,.36-2.27,1.09l-.06,.09-3.42-.27c-.11,0-.17-.05-.17-.16l.39-8.77,.19-3.48c0-.08,.04-.12,.12-.12h10.77c.08,0,.12,.04,.12,.12v3.48c0,.1-.04,.16-.12,.16h-7.5l-.16,4.42c.26-.12,.6-.23,1.02-.32,.42-.09,.79-.13,1.12-.13,1.16,0,2.22,.28,3.19,.84,.97,.57,1.74,1.33,2.32,2.27s.87,1.97,.87,3.11v2.17c0,1.16-.28,2.23-.84,3.22-.57,.98-1.33,1.76-2.28,2.35-.95,.59-2,.88-3.16,.88Z" />
            <path class="cls-4"
                d="M238.14,515.49c-1.35,0-2.56-.29-3.61-.88-1.04-.58-1.86-1.36-2.45-2.34-.59-.97-.88-2.04-.88-3.21l.03-10.14c0-1.19,.3-2.25,.89-3.2,.58-.96,1.4-1.73,2.44-2.3,1.04-.58,2.23-.87,3.58-.87s2.57,.29,3.59,.86c1.02,.57,1.83,1.34,2.41,2.3,.59,.96,.88,2.03,.88,3.21l.03,10.14c0,1.16-.29,2.22-.88,3.2-.59,.98-1.41,1.76-2.45,2.34-1.04,.58-2.24,.88-3.6,.88Zm3.05-6.42l-.03-10.14c0-.75-.28-1.36-.84-1.83-.56-.47-1.28-.7-2.18-.7s-1.65,.23-2.2,.7c-.55,.47-.83,1.08-.83,1.83v10.14c0,.79,.28,1.42,.83,1.88,.55,.46,1.29,.69,2.2,.69s1.63-.23,2.2-.69c.57-.46,.85-1.08,.85-1.88Z" />
        </g>
        <g>
            <path class="cls-4"
                d="M205.93,902.6h-3.62c-.1,0-.16-.05-.16-.16l.03-21.98c0-.08,.04-.12,.12-.12h3.59c.08,0,.12,.04,.12,.12l.03,21.98c0,.1-.04,.16-.12,.16Z" />
            <path class="cls-4"
                d="M215.32,893.35h-6.19c-.1,0-.16-.04-.16-.12v-3.48c0-.08,.05-.12,.16-.12h6.19c.1,0,.16,.04,.16,.12v3.48c0,.08-.05,.12-.16,.12Z" />
            <path class="cls-4"
                d="M224.29,902.92c-1.14,0-2.18-.29-3.12-.86-.96-.57-1.73-1.33-2.3-2.28s-.87-1.98-.87-3.09v-.95c0-.09,.05-.14,.16-.14h3.62c.08,0,.12,.05,.12,.14v.73c0,.72,.23,1.33,.7,1.82s1.03,.74,1.69,.74,1.23-.25,1.69-.76c.46-.5,.69-1.11,.69-1.8v-2.17c0-.67-.24-1.22-.72-1.67-.48-.45-1.07-.67-1.78-.67-.92,0-1.67,.36-2.27,1.09l-.06,.09-3.42-.27c-.11,0-.17-.05-.17-.16l.39-8.77,.19-3.48c0-.08,.04-.12,.12-.12h10.77c.08,0,.12,.04,.12,.12v3.48c0,.1-.04,.16-.12,.16h-7.5l-.16,4.42c.26-.12,.6-.23,1.02-.32,.42-.09,.79-.13,1.12-.13,1.16,0,2.22,.28,3.19,.84,.97,.57,1.74,1.33,2.32,2.27s.87,1.97,.87,3.11v2.17c0,1.16-.28,2.23-.84,3.22-.57,.98-1.33,1.76-2.28,2.35-.95,.59-2,.88-3.16,.88Z" />
            <path class="cls-4"
                d="M237.9,902.96c-1.11,0-2.15-.3-3.11-.89-.95-.58-1.71-1.37-2.27-2.35-.57-.98-.85-2.06-.85-3.23v-1.44c0-.11,.04-.17,.12-.17h3.59c.1,0,.16,.06,.16,.17v1.44c0,.7,.22,1.3,.67,1.8,.45,.5,1.01,.76,1.69,.76,.75,0,1.34-.26,1.77-.79,.43-.53,.64-1.12,.64-1.77v-.86c0-.67-.21-1.27-.62-1.8-.42-.53-.94-.8-1.58-.8h-1.25c-.1,0-.16-.06-.16-.17l.03-3.58c0-.08,.04-.12,.12-.12h1.25c.57,0,1.08-.22,1.53-.67,.45-.45,.67-1.04,.67-1.77v-.44c0-.69-.23-1.27-.69-1.75-.46-.48-1.03-.72-1.72-.72s-1.21,.24-1.67,.72c-.46,.48-.69,1.06-.69,1.75v1.53c0,.1-.04,.16-.12,.16h-3.59c-.08,0-.12-.05-.12-.16v-1.7c0-1.17,.3-2.21,.89-3.12,.58-.92,1.35-1.65,2.3-2.2,.95-.55,1.95-.82,3.02-.82,1.16,0,2.21,.28,3.16,.84,.95,.57,1.7,1.33,2.26,2.27,.56,.94,.84,1.97,.84,3.09v.52c0,.94-.16,1.75-.47,2.43s-.75,1.34-1.3,1.96c.55,.64,.99,1.33,1.31,2.09,.32,.76,.48,1.54,.48,2.34v.97c0,1.19-.28,2.28-.84,3.27-.57,.98-1.33,1.76-2.28,2.34-.95,.58-2,.87-3.16,.87Z" />
        </g>
        <g>
            <path class="cls-4"
                d="M349.54,846.94h-3.62c-.1,0-.16-.05-.16-.16l.03-21.98c0-.08,.04-.12,.12-.12h3.59c.08,0,.12,.04,.12,.12l.03,21.98c0,.1-.04,.16-.12,.16Z" />
            <path class="cls-4"
                d="M358.93,837.69h-6.19c-.1,0-.16-.04-.16-.12v-3.48c0-.08,.05-.12,.16-.12h6.19c.1,0,.16,.04,.16,.12v3.48c0,.08-.05,.12-.16,.12Z" />
            <path class="cls-4"
                d="M367.9,847.26c-1.14,0-2.18-.29-3.12-.86-.96-.57-1.73-1.33-2.3-2.28s-.87-1.98-.87-3.09v-.95c0-.09,.05-.14,.16-.14h3.62c.08,0,.12,.05,.12,.14v.73c0,.72,.23,1.33,.7,1.82s1.03,.74,1.69,.74,1.23-.25,1.69-.76,.69-1.11,.69-1.8v-2.17c0-.67-.24-1.22-.72-1.67s-1.07-.67-1.78-.67c-.92,0-1.67,.36-2.27,1.09l-.06,.09-3.42-.27c-.11,0-.17-.05-.17-.16l.39-8.77,.19-3.48c0-.08,.04-.12,.12-.12h10.77c.08,0,.12,.04,.12,.12v3.48c0,.1-.04,.16-.12,.16h-7.5l-.16,4.42c.26-.12,.6-.23,1.02-.32s.79-.13,1.12-.13c1.16,0,2.22,.28,3.19,.84,.97,.57,1.74,1.33,2.32,2.27s.87,1.97,.87,3.11v2.17c0,1.16-.28,2.23-.84,3.22-.57,.98-1.33,1.76-2.28,2.35-.95,.59-2,.88-3.16,.88Z" />
            <path class="cls-4"
                d="M385.96,846.94h-3.61c-.08,0-.12-.05-.12-.16v-3.75h-6.92c-.08,0-.12-.05-.12-.16v-3.52l6.97-14.56c.05-.08,.12-.12,.2-.12h3.61c.06,0,.09,.04,.09,.12l.03,14.42h2.25c.1,0,.16,.06,.16,.17v3.48c0,.1-.04,.16-.12,.16h-2.28v3.75c0,.1-.04,.16-.12,.16Zm-7-7.72h3.27v-6.97l-3.27,6.97Z" />
        </g>
        <g>
            <path class="cls-4"
                d="M347.29,959.99h-3.62c-.1,0-.16-.05-.16-.16l.03-21.98c0-.08,.04-.12,.12-.12h3.59c.08,0,.12,.04,.12,.12l.03,21.98c0,.1-.04,.16-.12,.16Z" />
            <path class="cls-4"
                d="M356.68,950.74h-6.19c-.1,0-.16-.04-.16-.12v-3.48c0-.08,.05-.12,.16-.12h6.19c.1,0,.16,.04,.16,.12v3.48c0,.08-.05,.12-.16,.12Z" />
            <path class="cls-4"
                d="M365.65,960.3c-1.14,0-2.18-.29-3.12-.86-.96-.57-1.73-1.33-2.3-2.28-.58-.95-.87-1.98-.87-3.09v-.95c0-.09,.05-.14,.16-.14h3.62c.08,0,.12,.05,.12,.14v.73c0,.72,.23,1.33,.7,1.82,.47,.5,1.03,.74,1.69,.74s1.23-.25,1.69-.76c.46-.5,.69-1.11,.69-1.8v-2.17c0-.67-.24-1.22-.72-1.67-.48-.45-1.07-.67-1.78-.67-.92,0-1.67,.37-2.27,1.09l-.06,.09-3.42-.27c-.12,0-.17-.05-.17-.16l.39-8.77,.19-3.48c0-.08,.04-.12,.12-.12h10.77c.08,0,.12,.04,.12,.12v3.48c0,.1-.04,.16-.12,.16h-7.5l-.16,4.42c.26-.12,.6-.23,1.02-.32,.42-.09,.79-.13,1.12-.13,1.16,0,2.22,.28,3.19,.84,.97,.57,1.74,1.33,2.32,2.27s.87,1.97,.87,3.11v2.17c0,1.16-.28,2.23-.84,3.22-.57,.98-1.33,1.76-2.28,2.35-.95,.59-2,.88-3.16,.88Z" />
            <path class="cls-4"
                d="M379.49,960.3c-1.14,0-2.18-.29-3.12-.86-.96-.57-1.73-1.33-2.3-2.28-.58-.95-.87-1.98-.87-3.09v-.95c0-.09,.05-.14,.16-.14h3.62c.08,0,.12,.05,.12,.14v.73c0,.72,.23,1.33,.7,1.82,.47,.5,1.03,.74,1.69,.74s1.23-.25,1.69-.76c.46-.5,.69-1.11,.69-1.8v-2.17c0-.67-.24-1.22-.72-1.67-.48-.45-1.07-.67-1.78-.67-.92,0-1.67,.37-2.27,1.09l-.06,.09-3.42-.27c-.12,0-.17-.05-.17-.16l.39-8.77,.19-3.48c0-.08,.04-.12,.12-.12h10.77c.08,0,.12,.04,.12,.12v3.48c0,.1-.04,.16-.12,.16h-7.5l-.16,4.42c.26-.12,.6-.23,1.02-.32,.42-.09,.79-.13,1.12-.13,1.16,0,2.22,.28,3.19,.84,.97,.57,1.74,1.33,2.32,2.27s.87,1.97,.87,3.11v2.17c0,1.16-.28,2.23-.84,3.22-.57,.98-1.33,1.76-2.28,2.35-.95,.59-2,.88-3.16,.88Z" />
        </g>
        <g>
            <path class="cls-4"
                d="M509.06,902.6h-3.62c-.1,0-.16-.05-.16-.16l.03-21.98c0-.08,.04-.12,.12-.12h3.59c.08,0,.12,.04,.12,.12l.03,21.98c0,.1-.04,.16-.12,.16Z" />
            <path class="cls-4"
                d="M518.45,893.35h-6.19c-.1,0-.16-.04-.16-.12v-3.48c0-.08,.05-.12,.16-.12h6.19c.1,0,.16,.04,.16,.12v3.48c0,.08-.05,.12-.16,.12Z" />
            <path class="cls-4"
                d="M527.42,902.92c-1.14,0-2.18-.29-3.12-.86-.96-.57-1.73-1.33-2.3-2.28-.58-.95-.87-1.98-.87-3.09v-.95c0-.09,.05-.14,.16-.14h3.62c.08,0,.12,.05,.12,.14v.73c0,.72,.23,1.33,.7,1.82,.47,.5,1.03,.74,1.69,.74s1.23-.25,1.69-.76c.46-.5,.69-1.11,.69-1.8v-2.17c0-.67-.24-1.22-.72-1.67-.48-.45-1.07-.67-1.78-.67-.92,0-1.67,.37-2.27,1.09l-.06,.09-3.42-.27c-.12,0-.17-.05-.17-.16l.39-8.77,.19-3.48c0-.08,.04-.12,.12-.12h10.77c.08,0,.12,.04,.12,.12v3.48c0,.1-.04,.16-.12,.16h-7.5l-.16,4.42c.26-.12,.6-.23,1.02-.32,.42-.09,.79-.13,1.12-.13,1.16,0,2.22,.28,3.19,.84,.97,.57,1.74,1.33,2.32,2.27s.87,1.97,.87,3.11v2.17c0,1.16-.28,2.23-.84,3.22-.57,.98-1.33,1.76-2.28,2.35-.95,.59-2,.88-3.16,.88Z" />
            <path class="cls-4"
                d="M541.45,902.92c-1.12,0-2.15-.29-3.11-.88-.95-.58-1.71-1.35-2.29-2.31-.58-.96-.87-2.02-.87-3.17l-.03-10.11c0-1.17,.29-2.24,.88-3.23,.58-.98,1.35-1.76,2.3-2.35,.95-.59,1.99-.88,3.12-.88s2.2,.29,3.16,.88c.95,.59,1.71,1.38,2.27,2.34,.57,.97,.85,2.05,.85,3.25v.64c0,.08-.05,.12-.16,.12h-3.59c-.08,0-.12-.04-.12-.12v-.64c0-.71-.23-1.31-.69-1.81-.46-.5-1.03-.75-1.72-.75s-1.22,.25-1.69,.75-.7,1.1-.7,1.81v2.2c.75-.32,1.55-.48,2.39-.48,1.16,0,2.21,.29,3.16,.86,.95,.57,1.7,1.35,2.26,2.32,.56,.97,.84,2.05,.84,3.23v1.98c0,1.16-.28,2.22-.84,3.19-.57,.97-1.33,1.74-2.27,2.31-.94,.57-1.98,.86-3.14,.86Zm0-3.83c.67,0,1.23-.24,1.69-.73,.46-.49,.69-1.09,.69-1.8v-1.98c0-.69-.23-1.28-.69-1.78-.46-.5-1.02-.75-1.69-.75s-1.22,.25-1.69,.73c-.47,.49-.7,1.09-.7,1.8v1.98c0,.68,.23,1.27,.7,1.77,.47,.51,1.03,.76,1.69,.76Z" />
        </g>
        <g>
            <path class="cls-4"
                d="M509.45,800.23h-3.62c-.1,0-.16-.05-.16-.16l.03-21.98c0-.08,.04-.12,.12-.12h3.59c.08,0,.12,.04,.12,.12l.03,21.98c0,.1-.04,.16-.12,.16Z" />
            <path class="cls-4"
                d="M518.84,790.98h-6.19c-.1,0-.16-.04-.16-.12v-3.48c0-.08,.05-.12,.16-.12h6.19c.1,0,.16,.04,.16,.12v3.48c0,.08-.05,.12-.16,.12Z" />
            <path class="cls-4"
                d="M527.81,800.54c-1.14,0-2.18-.29-3.12-.86-.96-.57-1.73-1.33-2.3-2.28-.58-.95-.87-1.98-.87-3.09v-.95c0-.09,.05-.14,.16-.14h3.62c.08,0,.12,.05,.12,.14v.73c0,.72,.23,1.33,.7,1.82,.47,.5,1.03,.74,1.69,.74s1.23-.25,1.69-.76c.46-.5,.69-1.11,.69-1.8v-2.17c0-.67-.24-1.22-.72-1.67-.48-.45-1.07-.67-1.78-.67-.92,0-1.67,.37-2.27,1.09l-.06,.09-3.42-.27c-.12,0-.17-.05-.17-.16l.39-8.77,.19-3.48c0-.08,.04-.12,.12-.12h10.77c.08,0,.12,.04,.12,.12v3.48c0,.1-.04,.16-.12,.16h-7.5l-.16,4.42c.26-.12,.6-.23,1.02-.32,.42-.09,.79-.13,1.12-.13,1.16,0,2.22,.28,3.19,.84,.97,.57,1.74,1.33,2.32,2.27s.87,1.97,.87,3.11v2.17c0,1.16-.28,2.23-.84,3.22-.57,.98-1.33,1.76-2.28,2.35-.95,.59-2,.88-3.16,.88Z" />
            <path class="cls-4"
                d="M541.54,800.23h-3.95c-.09,0-.12-.05-.08-.16l6.59-18.34h-8.73c-.08,0-.12-.04-.12-.12v-3.48c0-.1,.04-.16,.12-.16h12.39c.08,0,.12,.05,.12,.16v3.58l-6.14,18.38c-.04,.1-.11,.16-.2,.16Z" />
        </g>
        <g>
            <path class="cls-4"
                d="M509.66,695.44h-3.62c-.1,0-.16-.05-.16-.16l.03-21.98c0-.08,.04-.12,.12-.12h3.59c.08,0,.12,.04,.12,.12l.03,21.98c0,.1-.04,.16-.12,.16Z" />
            <path class="cls-4"
                d="M519.05,686.19h-6.19c-.1,0-.16-.04-.16-.12v-3.48c0-.08,.05-.12,.16-.12h6.19c.1,0,.16,.04,.16,.12v3.48c0,.08-.05,.12-.16,.12Z" />
            <path class="cls-4"
                d="M528.02,695.76c-1.14,0-2.18-.29-3.12-.86-.96-.57-1.73-1.33-2.3-2.28-.58-.95-.87-1.98-.87-3.09v-.95c0-.09,.05-.14,.16-.14h3.62c.08,0,.12,.05,.12,.14v.73c0,.72,.23,1.33,.7,1.82,.47,.5,1.03,.74,1.69,.74s1.23-.25,1.69-.76c.46-.5,.69-1.11,.69-1.8v-2.17c0-.67-.24-1.22-.72-1.67-.48-.45-1.07-.67-1.78-.67-.92,0-1.67,.36-2.27,1.09l-.06,.09-3.42-.27c-.11,0-.17-.05-.17-.16l.39-8.77,.19-3.48c0-.08,.04-.12,.12-.12h10.77c.08,0,.12,.04,.12,.12v3.48c0,.1-.04,.16-.12,.16h-7.5l-.16,4.42c.26-.12,.6-.23,1.02-.32,.42-.09,.79-.13,1.12-.13,1.16,0,2.22,.28,3.19,.84,.97,.57,1.74,1.33,2.32,2.27s.87,1.97,.87,3.11v2.17c0,1.16-.28,2.23-.84,3.22-.57,.98-1.33,1.76-2.28,2.35s-2,.88-3.16,.88Z" />
            <path class="cls-4"
                d="M541.83,695.76c-1.11,0-2.15-.29-3.11-.88-.95-.58-1.71-1.35-2.29-2.31-.58-.96-.87-2.02-.87-3.17v-1.98c0-.9,.17-1.73,.52-2.52s.8-1.47,1.38-2.06c-.47-.51-.84-1.11-1.1-1.8-.27-.69-.4-1.43-.4-2.23,0-1.09,.26-2.1,.78-3.03,.52-.91,1.23-1.62,2.12-2.16s1.89-.8,2.97-.8,2.08,.27,2.97,.81c.89,.54,1.59,1.26,2.12,2.16,.53,.9,.8,1.9,.8,3.01,0,.79-.13,1.53-.4,2.21-.27,.68-.63,1.29-1.1,1.82,.57,.57,1.03,1.26,1.36,2.05,.33,.79,.5,1.64,.5,2.53v1.98c0,1.16-.28,2.22-.84,3.19-.57,.97-1.33,1.74-2.27,2.31s-1.98,.86-3.14,.86Zm0-3.83c.67,0,1.23-.24,1.69-.73,.46-.49,.69-1.09,.69-1.8v-1.98c0-.69-.23-1.28-.69-1.78s-1.02-.75-1.69-.75-1.22,.25-1.69,.73c-.47,.49-.7,1.09-.7,1.8v1.98c0,.68,.23,1.27,.7,1.77,.47,.51,1.03,.76,1.69,.76Zm0-10.98c.56,0,1.04-.21,1.43-.62,.39-.42,.59-.92,.59-1.52s-.2-1.1-.59-1.53c-.39-.43-.87-.64-1.43-.64s-1.03,.21-1.44,.64c-.41,.43-.61,.94-.61,1.53s.2,1.07,.61,1.5c.41,.43,.89,.64,1.44,.64Z" />
        </g>
        <g>
            <path class="cls-4"
                d="M509.15,592.95h-3.62c-.1,0-.16-.05-.16-.16l.03-21.98c0-.08,.04-.12,.12-.12h3.59c.08,0,.12,.04,.12,.12l.03,21.98c0,.1-.04,.16-.12,.16Z" />
            <path class="cls-4"
                d="M518.54,583.7h-6.19c-.1,0-.16-.04-.16-.12v-3.48c0-.08,.05-.12,.16-.12h6.19c.1,0,.16,.04,.16,.12v3.48c0,.08-.05,.12-.16,.12Z" />
            <path class="cls-4"
                d="M527.51,593.26c-1.14,0-2.18-.29-3.12-.86-.96-.57-1.73-1.33-2.3-2.28-.58-.95-.87-1.98-.87-3.09v-.95c0-.09,.05-.14,.16-.14h3.62c.08,0,.12,.05,.12,.14v.73c0,.72,.23,1.33,.7,1.82,.47,.5,1.03,.74,1.69,.74s1.23-.25,1.69-.76c.46-.5,.69-1.11,.69-1.8v-2.17c0-.67-.24-1.22-.72-1.67-.48-.45-1.07-.67-1.78-.67-.92,0-1.67,.36-2.27,1.09l-.06,.09-3.42-.27c-.12,0-.17-.05-.17-.16l.39-8.77,.19-3.48c0-.08,.04-.12,.12-.12h10.77c.08,0,.12,.04,.12,.12v3.48c0,.1-.04,.16-.12,.16h-7.5l-.16,4.42c.26-.12,.6-.23,1.02-.32,.42-.09,.79-.13,1.12-.13,1.16,0,2.22,.28,3.19,.84,.97,.57,1.74,1.33,2.32,2.27s.87,1.97,.87,3.11v2.17c0,1.16-.28,2.23-.84,3.22-.57,.98-1.33,1.76-2.28,2.35-.95,.59-2,.88-3.16,.88Z" />
            <path class="cls-4"
                d="M541.24,593.26c-1.12,0-2.17-.29-3.12-.88-.96-.58-1.72-1.37-2.29-2.35-.57-.98-.85-2.06-.85-3.23v-.64c0-.08,.05-.12,.16-.12h3.59c.08,0,.12,.04,.12,.12v.64c0,.7,.23,1.3,.7,1.8,.47,.51,1.03,.76,1.69,.76s1.23-.25,1.7-.76c.47-.5,.7-1.11,.7-1.8v-2.22c-.75,.32-1.55,.48-2.41,.48-1.16,0-2.2-.29-3.12-.86-.94-.57-1.69-1.35-2.26-2.32-.57-.97-.85-2.04-.85-3.21v-1.98c0-1.19,.29-2.25,.86-3.2,.56-.96,1.32-1.73,2.27-2.3,.95-.58,1.98-.87,3.11-.87s2.18,.29,3.12,.86c.95,.57,1.71,1.35,2.29,2.32,.58,.97,.87,2.04,.87,3.2v1.98l.03,8.12c0,1.17-.29,2.24-.86,3.22-.57,.98-1.34,1.76-2.29,2.35s-2.01,.88-3.16,.88Zm0-12.06c.69,0,1.26-.24,1.72-.73,.46-.49,.69-1.08,.69-1.78v-1.98c0-.69-.23-1.28-.7-1.78s-1.04-.75-1.7-.75-1.21,.25-1.67,.73c-.46,.49-.69,1.09-.69,1.8v1.98c0,.68,.23,1.27,.69,1.77,.46,.5,1.02,.75,1.67,.75Z" />
        </g>
        <g>
            <path class="cls-4"
                d="M508.03,489.69h-3.62c-.1,0-.16-.05-.16-.16l.03-21.98c0-.08,.04-.12,.12-.12h3.59c.08,0,.12,.04,.12,.12l.03,21.98c0,.1-.04,.16-.12,.16Z" />
            <path class="cls-4"
                d="M517.42,480.44h-6.19c-.1,0-.16-.04-.16-.12v-3.48c0-.08,.05-.12,.16-.12h6.19c.1,0,.16,.04,.16,.12v3.48c0,.08-.05,.12-.16,.12Z" />
            <path class="cls-4"
                d="M526.58,490c-1.12,0-2.15-.29-3.11-.88-.95-.58-1.71-1.35-2.29-2.31-.58-.96-.87-2.02-.87-3.17l-.03-10.11c0-1.17,.29-2.24,.88-3.23,.58-.98,1.35-1.76,2.3-2.35,.95-.59,1.99-.88,3.12-.88s2.2,.29,3.16,.88c.95,.59,1.71,1.38,2.27,2.34,.57,.97,.85,2.05,.85,3.25v.64c0,.08-.05,.12-.16,.12h-3.59c-.08,0-.12-.04-.12-.12v-.64c0-.71-.23-1.31-.69-1.81-.46-.5-1.03-.75-1.72-.75s-1.22,.25-1.69,.75-.7,1.1-.7,1.81v2.2c.75-.32,1.55-.48,2.39-.48,1.16,0,2.21,.29,3.16,.86,.95,.57,1.7,1.35,2.26,2.32,.56,.97,.84,2.05,.84,3.23v1.98c0,1.16-.28,2.22-.84,3.19-.57,.97-1.33,1.74-2.27,2.31s-1.98,.86-3.14,.86Zm0-3.83c.67,0,1.23-.24,1.69-.73,.46-.49,.69-1.09,.69-1.8v-1.98c0-.69-.23-1.28-.69-1.78-.46-.5-1.02-.75-1.69-.75s-1.22,.25-1.69,.73c-.47,.49-.7,1.09-.7,1.8v1.98c0,.68,.23,1.27,.7,1.77,.47,.51,1.03,.76,1.69,.76Z" />
            <path class="cls-4"
                d="M541.77,490c-1.35,0-2.56-.29-3.61-.88-1.04-.58-1.86-1.36-2.45-2.34-.59-.97-.88-2.04-.88-3.21l.03-10.14c0-1.19,.3-2.25,.89-3.2,.58-.96,1.4-1.73,2.44-2.3,1.04-.58,2.23-.87,3.58-.87s2.57,.29,3.59,.86c1.02,.57,1.83,1.34,2.41,2.3,.59,.96,.88,2.03,.88,3.21l.03,10.14c0,1.16-.29,2.22-.88,3.2-.59,.98-1.41,1.76-2.45,2.34-1.04,.58-2.24,.88-3.6,.88Zm3.05-6.42l-.03-10.14c0-.75-.28-1.36-.84-1.83-.56-.47-1.28-.7-2.18-.7s-1.65,.23-2.2,.7c-.55,.47-.83,1.08-.83,1.83v10.14c0,.79,.28,1.42,.83,1.88,.55,.46,1.29,.69,2.2,.69s1.63-.23,2.2-.69c.57-.46,.85-1.08,.85-1.88Z" />
        </g>
        <g>
            <path class="cls-4"
                d="M329.43,553.76l3.97-21.98c.02-.08,.07-.12,.16-.12h4.64c.08,0,.13,.04,.16,.12l3.81,21.98c0,.1-.03,.16-.12,.16h-3.55c-.1,0-.16-.05-.17-.16l-.34-2.34h-4.36l-.34,2.34c-.01,.1-.06,.16-.16,.16h-3.56c-.08,0-.12-.05-.12-.16Zm6.27-14.75l-1.44,8.98h3.08l-1.31-8.98-.19-1.19-.14,1.19Z" />
            <path class="cls-4"
                d="M347.91,553.91h-3.62c-.08,0-.12-.05-.12-.16l.06-21.98c0-.08,.04-.12,.12-.12h3.91c.08,0,.16,.04,.22,.12l2.92,4.22,2.91-4.22c.06-.08,.14-.12,.23-.12h3.92c.09,0,.14,.04,.14,.12l.06,21.98c0,.1-.04,.16-.12,.16h-3.62c-.08,0-.12-.05-.12-.16l-.03-16.33-3.36,4.88-3.33-4.88-.03,16.33c0,.1-.04,.16-.12,.16Z" />
            <path class="cls-4"
                d="M365.08,553.91h-3.59c-.1,0-.16-.05-.16-.16l.06-21.98c0-.08,.04-.12,.12-.12h6.16c1.96,0,3.51,.6,4.65,1.79,1.14,1.19,1.71,2.82,1.71,4.87,0,1.5-.3,2.81-.89,3.92-.6,1.1-1.39,1.96-2.34,2.56-.96,.6-2,.91-3.12,.91h-2.44v8.06c0,.1-.05,.16-.16,.16Zm2.59-18.47l-2.44,.03v6.34h2.44c.68,0,1.27-.33,1.77-.98,.5-.65,.75-1.5,.75-2.54,0-.83-.22-1.52-.67-2.05-.45-.54-1.06-.8-1.84-.8Z" />
            <path class="cls-4"
                d="M379.96,553.91h-3.62c-.08,0-.12-.05-.12-.16l.03-21.98c0-.08,.05-.12,.16-.12h3.56c.1,0,.16,.04,.16,.12l-.03,8.7h4.8v-8.7c0-.08,.04-.12,.12-.12h3.56c.1,0,.16,.04,.16,.12l.06,21.98c0,.1-.05,.16-.16,.16h-3.59c-.1,0-.16-.05-.16-.16v-9.41h-4.8v9.41c0,.1-.04,.16-.12,.16Z" />
            <path class="cls-4"
                d="M395.18,553.91h-3.62c-.1,0-.16-.05-.16-.16l.03-21.98c0-.08,.04-.12,.12-.12h3.59c.08,0,.12,.04,.12,.12l.03,21.98c0,.1-.04,.16-.12,.16Z" />
            <path class="cls-4"
                d="M410.18,553.91h-3.59c-.1,0-.16-.05-.16-.16l.06-21.98c0-.08,.04-.12,.12-.12h6.16c1.96,0,3.51,.6,4.65,1.79,1.14,1.19,1.71,2.82,1.71,4.87,0,1.5-.3,2.81-.89,3.92-.6,1.1-1.39,1.96-2.34,2.56-.96,.6-2,.91-3.12,.91h-2.44v8.06c0,.1-.05,.16-.16,.16Zm2.59-18.47l-2.44,.03v6.34h2.44c.68,0,1.27-.33,1.77-.98,.5-.65,.75-1.5,.75-2.54,0-.83-.22-1.52-.67-2.05-.45-.54-1.06-.8-1.84-.8Z" />
        </g>
    </g>
</svg>