<?xml version="1.0" encoding="UTF-8"?>
<svg id="sousSol" viewBox="0 0 657.91 1000.14" xmlns="http://www.w3.org/2000/svg">
    <defs>
        <style>
            .cls-1 {
            fill: #d7d7d6;
            }

            .cls-2 {
            stroke: #d7d7d6;
            }

            .cls-2, .cls-3 {
            fill: none;
            stroke-miterlimit: 10;
            stroke-width: 4px;
            }

            .cls-3 {
            stroke: #9f9f9e;
            }
        </style>
    </defs>
    <rect class="cls-2" data-name="Salle Guernesey" height="78.89" id="Salle_Guernesey" width="113.78"
        x="220.06" y="221.86" />
    <polygon class="cls-2" data-name="Salle Jersay" id="Salle_Jersay"
        points="485.17 305.2 485.17 225.2 462.51 225.2 462.51 211.2 621.84 211.2 621.84 299.86 562.51 299.86 562.51 305.2 485.17 305.2" />
    <polygon class="cls-3"
        points="462.51 25.2 462.51 211.2 647.84 211.2 647.84 351.2 462.51 351.2 462.51 371.2 527.17 371.2 515.17 408.53 586.51 408.53 586.51 496.53 216.51 509.86 216.51 407.86 333.84 407.86 333.84 351.86 62.51 351.86 62.51 221.86 333.84 221.86 333.84 25.2 462.51 25.2" />
    <g data-name="text" id="text-2">
        <g>
            <path class="cls-1"
                d="M252.92,256.62c-1.03,0-1.98-.26-2.85-.79-.86-.53-1.55-1.23-2.06-2.12-.51-.88-.77-1.85-.77-2.91v-1.33c0-.1,.05-.16,.14-.16h3.26c.08,0,.11,.05,.11,.16v1.33c0,.63,.21,1.18,.64,1.64,.42,.46,.93,.69,1.53,.69s1.12-.23,1.54-.7c.42-.47,.64-1.01,.64-1.62,0-.71-.46-1.33-1.39-1.85-.15-.09-.35-.21-.59-.35-.24-.14-.53-.3-.86-.47-.33-.18-.65-.36-.96-.53-.31-.17-.61-.34-.91-.5-1.06-.62-1.84-1.4-2.36-2.34-.51-.94-.77-1.99-.77-3.17,0-1.08,.26-2.05,.79-2.92,.53-.86,1.22-1.54,2.07-2.05,.85-.51,1.78-.76,2.78-.76s1.97,.25,2.83,.76c.86,.52,1.55,1.21,2.06,2.07s.77,1.82,.77,2.89v2.38c0,.08-.04,.11-.11,.11h-3.26c-.08,0-.11-.04-.11-.11l-.03-2.38c0-.68-.21-1.23-.64-1.66s-.93-.64-1.52-.64-1.1,.23-1.53,.68-.64,.99-.64,1.61,.13,1.16,.4,1.59c.27,.42,.76,.83,1.48,1.22,.08,.04,.25,.13,.52,.28,.27,.15,.58,.32,.91,.5,.33,.18,.64,.35,.91,.5,.27,.15,.44,.23,.5,.26,.96,.54,1.72,1.2,2.29,1.98,.56,.78,.84,1.75,.84,2.89s-.25,2.1-.76,2.97c-.52,.88-1.21,1.57-2.07,2.08-.86,.51-1.81,.76-2.86,.76Z" />
            <path class="cls-1"
                d="M259.65,256.19l3.6-19.92c.02-.08,.07-.11,.14-.11h4.21c.08,0,.12,.04,.14,.11l3.46,19.92c0,.09-.03,.14-.11,.14h-3.21c-.09,0-.15-.05-.16-.14l-.31-2.12h-3.95l-.31,2.12c0,.09-.06,.14-.14,.14h-3.23c-.08,0-.11-.05-.11-.14Zm5.68-13.37l-1.3,8.14h2.79l-1.19-8.14-.17-1.08-.13,1.08Z" />
            <path class="cls-1"
                d="M282.49,256.33h-9.37c-.08,0-.11-.05-.11-.14l.03-19.9c0-.09,.05-.14,.14-.14h3.23c.09,0,.14,.05,.14,.14l-.03,16.47h5.98c.09,0,.14,.05,.14,.14v3.29c0,.09-.05,.14-.14,.14Z" />
            <path class="cls-1"
                d="M294,256.33h-9.37c-.08,0-.11-.05-.11-.14l.03-19.9c0-.09,.05-.14,.14-.14h3.23c.09,0,.14,.05,.14,.14l-.03,16.47h5.98c.09,0,.14,.05,.14,.14v3.29c0,.09-.05,.14-.14,.14Z" />
            <path class="cls-1"
                d="M305.51,256.33h-9.37c-.08,0-.11-.05-.11-.14l.03-19.92c0-.08,.04-.11,.11-.11h9.32c.08,0,.11,.05,.11,.14v3.24c0,.08-.04,.11-.11,.11h-5.95v4.53h5.95c.08,0,.11,.04,.11,.11l.03,3.29c0,.08-.04,.11-.11,.11h-5.98v5.07h5.98c.08,0,.11,.05,.11,.14v3.31c0,.08-.04,.11-.11,.11Z" />
            <path class="cls-1"
                d="M232.2,291.42c-1.05,0-1.99-.26-2.83-.78-.85-.52-1.53-1.22-2.05-2.1-.51-.88-.77-1.86-.77-2.95v-9.19c0-1.06,.26-2.02,.78-2.89,.51-.88,1.19-1.58,2.05-2.1,.86-.52,1.8-.79,2.82-.79s2.03,.25,2.89,.76c.86,.52,1.54,1.21,2.05,2.08s.76,1.85,.76,2.93v1.33c0,.08-.05,.11-.14,.11h-3.26c-.08,0-.11-.04-.11-.11v-1.1c0-.74-.21-1.35-.62-1.83-.42-.48-.93-.72-1.56-.72-.56,0-1.05,.23-1.49,.69-.43,.46-.65,1.01-.65,1.63v9.19c0,.63,.21,1.18,.64,1.64,.42,.46,.92,.69,1.5,.69,.62,0,1.14-.22,1.56-.67,.42-.45,.62-1,.62-1.65v-1.43h-2.03c-.1,0-.16-.05-.16-.14v-3.24c0-.09,.05-.14,.16-.14h5.42c.08,0,.11,.05,.11,.14v4.81c0,1.09-.25,2.07-.76,2.95-.52,.88-1.2,1.58-2.05,2.1s-1.81,.78-2.87,.78Z" />
            <path class="cls-1"
                d="M245.27,291.42c-1.02,0-1.96-.26-2.83-.79-.87-.53-1.56-1.24-2.07-2.13-.51-.89-.77-1.87-.77-2.92l.06-14.5c0-.08,.04-.11,.11-.11h3.26c.08,0,.11,.04,.11,.11v14.5c0,.65,.21,1.21,.62,1.66,.42,.46,.92,.69,1.51,.69s1.14-.23,1.56-.69c.42-.46,.62-1.01,.62-1.66v-14.5c0-.08,.04-.11,.11-.11h3.26c.08,0,.11,.04,.11,.11l.06,14.5c0,1.07-.25,2.05-.76,2.95-.52,.89-1.21,1.59-2.07,2.12-.86,.52-1.82,.79-2.89,.79Z" />
            <path class="cls-1"
                d="M262.76,291.13h-9.37c-.08,0-.11-.05-.11-.14l.03-19.92c0-.08,.04-.11,.11-.11h9.32c.08,0,.11,.05,.11,.14v3.24c0,.08-.04,.11-.11,.11h-5.95v4.53h5.95c.08,0,.11,.04,.11,.11l.03,3.29c0,.08-.04,.11-.11,.11h-5.98v5.07h5.98c.08,0,.11,.05,.11,.14v3.31c0,.08-.04,.11-.11,.11Z" />
            <path class="cls-1"
                d="M268.85,291.13h-3.29c-.08,0-.11-.05-.11-.14l.06-19.92c0-.08,.04-.11,.11-.11h5.86c1.05,0,2.01,.25,2.89,.76s1.58,1.19,2.1,2.05c.52,.86,.79,1.83,.79,2.92,0,.71-.11,1.35-.33,1.93-.22,.58-.47,1.06-.76,1.46-.29,.4-.55,.69-.79,.88,1.05,1.16,1.57,2.53,1.57,4.09l.03,5.95c0,.09-.05,.14-.14,.14h-3.29c-.08,0-.11-.03-.11-.08v-6c0-.7-.25-1.3-.74-1.81-.49-.51-1.09-.76-1.81-.76h-1.91l-.03,8.52c0,.09-.04,.14-.11,.14Zm2.63-16.71h-2.49v4.56h2.49c.59,0,1.12-.22,1.59-.67,.47-.44,.7-.99,.7-1.63s-.23-1.14-.68-1.59c-.45-.45-.99-.67-1.61-.67Z" />
            <path class="cls-1"
                d="M282.58,291.13h-2.9c-.15,0-.23-.07-.23-.2l-.03-19.75c0-.15,.08-.23,.23-.23h2.62l4.9,11.43-.14-11.2c0-.15,.08-.23,.25-.23h2.87c.11,0,.17,.08,.17,.23l.03,19.78c0,.11-.05,.17-.14,.17h-2.55l-5.03-10.68,.21,10.45c0,.15-.09,.23-.27,.23Z" />
            <path class="cls-1"
                d="M297.8,291.42c-1.03,0-1.98-.26-2.85-.79-.86-.53-1.55-1.23-2.06-2.12-.51-.88-.77-1.85-.77-2.91v-1.33c0-.1,.05-.16,.14-.16h3.26c.08,0,.11,.05,.11,.16v1.33c0,.63,.21,1.18,.64,1.64,.42,.46,.93,.69,1.53,.69s1.12-.23,1.54-.7c.42-.47,.64-1.01,.64-1.62,0-.71-.46-1.33-1.39-1.85-.15-.09-.35-.21-.59-.35-.24-.14-.53-.3-.86-.47-.33-.18-.65-.36-.96-.53-.31-.17-.61-.34-.91-.5-1.06-.62-1.84-1.4-2.36-2.34-.51-.94-.77-1.99-.77-3.17,0-1.08,.26-2.05,.79-2.92,.53-.86,1.22-1.54,2.07-2.05,.85-.51,1.78-.76,2.78-.76s1.97,.25,2.83,.76c.86,.52,1.55,1.21,2.06,2.07s.77,1.82,.77,2.89v2.38c0,.08-.04,.11-.11,.11h-3.26c-.08,0-.11-.04-.11-.11l-.03-2.38c0-.68-.21-1.23-.64-1.66s-.93-.64-1.52-.64-1.1,.23-1.53,.68-.64,.99-.64,1.61,.13,1.16,.4,1.59c.27,.42,.76,.83,1.48,1.22,.08,.04,.25,.13,.52,.28,.27,.15,.58,.32,.91,.5,.33,.18,.64,.35,.91,.5,.27,.15,.44,.23,.5,.26,.96,.54,1.72,1.2,2.29,1.98,.56,.78,.84,1.75,.84,2.89s-.25,2.1-.76,2.97c-.52,.88-1.21,1.57-2.07,2.08-.86,.51-1.81,.76-2.86,.76Z" />
            <path class="cls-1"
                d="M314.99,291.13h-9.37c-.08,0-.11-.05-.11-.14l.03-19.92c0-.08,.04-.11,.11-.11h9.32c.08,0,.11,.05,.11,.14v3.24c0,.08-.04,.11-.11,.11h-5.95v4.53h5.95c.08,0,.11,.04,.11,.11l.03,3.29c0,.08-.04,.11-.11,.11h-5.98v5.07h5.98c.08,0,.11,.05,.11,.14v3.31c0,.08-.04,.11-.11,.11Z" />
            <path class="cls-1"
                d="M323.73,291.13h-3.33c-.07,0-.1-.04-.1-.11l.03-8.24-3.88-11.71c-.02-.08,0-.11,.08-.11h3.23c.09,0,.15,.04,.17,.11l2.14,7.8,2.18-7.8c.02-.08,.07-.11,.14-.11h3.26c.08,0,.1,.04,.08,.11l-3.92,11.6,.03,8.35c0,.08-.04,.11-.11,.11Z" />
        </g>
        <g>
            <path class="cls-1"
                d="M529.7,250.84c-1.03,0-1.98-.26-2.85-.79-.86-.53-1.55-1.23-2.06-2.12-.51-.88-.77-1.85-.77-2.91v-1.33c0-.1,.05-.16,.14-.16h3.26c.08,0,.11,.05,.11,.16v1.33c0,.63,.21,1.18,.64,1.64,.42,.46,.93,.69,1.53,.69s1.12-.23,1.54-.7c.42-.47,.64-1.01,.64-1.62,0-.71-.46-1.33-1.39-1.85-.15-.09-.35-.21-.59-.35-.24-.14-.53-.3-.86-.47-.33-.18-.65-.36-.96-.53-.31-.17-.61-.34-.91-.5-1.06-.62-1.84-1.4-2.36-2.34-.51-.94-.77-1.99-.77-3.17,0-1.08,.26-2.05,.79-2.92,.53-.86,1.22-1.54,2.07-2.05,.85-.51,1.78-.76,2.78-.76s1.97,.25,2.83,.76c.86,.52,1.55,1.21,2.06,2.07s.77,1.82,.77,2.89v2.38c0,.08-.04,.11-.11,.11h-3.26c-.08,0-.11-.04-.11-.11l-.03-2.38c0-.68-.21-1.23-.64-1.66s-.93-.64-1.52-.64-1.1,.23-1.53,.68-.64,.99-.64,1.61,.13,1.16,.4,1.59c.27,.42,.76,.83,1.48,1.22,.08,.04,.25,.13,.52,.28,.27,.15,.58,.32,.91,.5,.33,.18,.64,.35,.91,.5,.27,.15,.44,.23,.5,.26,.96,.54,1.72,1.2,2.29,1.98,.56,.78,.84,1.75,.84,2.89s-.25,2.1-.76,2.97c-.52,.88-1.21,1.57-2.07,2.08-.86,.51-1.81,.76-2.86,.76Z" />
            <path class="cls-1"
                d="M536.43,250.41l3.6-19.92c.02-.08,.07-.11,.14-.11h4.21c.08,0,.12,.04,.14,.11l3.46,19.92c0,.09-.03,.14-.11,.14h-3.21c-.09,0-.15-.05-.16-.14l-.31-2.12h-3.95l-.31,2.12c0,.09-.06,.14-.14,.14h-3.23c-.08,0-.11-.05-.11-.14Zm5.68-13.37l-1.3,8.14h2.79l-1.19-8.14-.17-1.08-.13,1.08Z" />
            <path class="cls-1"
                d="M559.27,250.55h-9.37c-.08,0-.11-.05-.11-.14l.03-19.9c0-.09,.05-.14,.14-.14h3.23c.09,0,.14,.05,.14,.14l-.03,16.47h5.98c.09,0,.14,.05,.14,.14v3.29c0,.09-.05,.14-.14,.14Z" />
            <path class="cls-1"
                d="M570.78,250.55h-9.37c-.08,0-.11-.05-.11-.14l.03-19.9c0-.09,.05-.14,.14-.14h3.23c.09,0,.14,.05,.14,.14l-.03,16.47h5.98c.09,0,.14,.05,.14,.14v3.29c0,.09-.05,.14-.14,.14Z" />
            <path class="cls-1"
                d="M582.29,250.55h-9.37c-.08,0-.11-.05-.11-.14l.03-19.92c0-.08,.04-.11,.11-.11h9.32c.08,0,.11,.05,.11,.14v3.24c0,.08-.04,.11-.11,.11h-5.95v4.53h5.95c.08,0,.11,.04,.11,.11l.03,3.29c0,.08-.04,.11-.11,.11h-5.98v5.07h5.98c.08,0,.11,.05,.11,.14v3.31c0,.08-.04,.11-.11,.11Z" />
            <path class="cls-1"
                d="M522.04,285.64c-1.07,0-2.03-.25-2.9-.76-.86-.51-1.54-1.22-2.03-2.12-.5-.9-.74-1.91-.74-3.02v-1.35c0-.08,.04-.11,.11-.11h3.29c.08,0,.11,.05,.11,.16v1.3c0,.71,.2,1.29,.61,1.73,.41,.45,.92,.67,1.56,.67,.58,0,1.09-.24,1.51-.73,.42-.49,.64-1.05,.64-1.68v-14.42c0-.08,.04-.11,.11-.11h3.26c.08,0,.11,.05,.11,.14l.03,14.39c0,1.06-.25,2.03-.76,2.93-.52,.91-1.2,1.63-2.05,2.17s-1.8,.81-2.85,.81Z" />
            <path class="cls-1"
                d="M539.37,285.35h-9.37c-.08,0-.11-.05-.11-.14l.03-19.92c0-.08,.04-.11,.11-.11h9.32c.08,0,.11,.05,.11,.14v3.24c0,.08-.04,.11-.11,.11h-5.95v4.53h5.95c.08,0,.11,.04,.11,.11l.03,3.29c0,.08-.04,.11-.11,.11h-5.98v5.07h5.98c.08,0,.11,.05,.11,.14v3.31c0,.08-.04,.11-.11,.11Z" />
            <path class="cls-1"
                d="M545.46,285.35h-3.29c-.08,0-.11-.05-.11-.14l.06-19.92c0-.08,.04-.11,.11-.11h5.86c1.05,0,2.01,.25,2.89,.76s1.58,1.19,2.1,2.05c.52,.86,.79,1.83,.79,2.92,0,.71-.11,1.35-.33,1.93-.22,.58-.47,1.06-.76,1.46-.29,.4-.55,.69-.79,.88,1.05,1.16,1.57,2.53,1.57,4.09l.03,5.95c0,.09-.05,.14-.14,.14h-3.29c-.08,0-.11-.03-.11-.08v-6c0-.7-.25-1.3-.74-1.81-.49-.51-1.09-.76-1.81-.76h-1.91l-.03,8.52c0,.09-.04,.14-.11,.14Zm2.63-16.71h-2.49v4.56h2.49c.59,0,1.12-.22,1.59-.67,.47-.44,.7-.99,.7-1.63s-.23-1.14-.68-1.59c-.45-.45-.99-.67-1.61-.67Z" />
            <path class="cls-1"
                d="M560.96,285.64c-1.03,0-1.98-.26-2.85-.79-.86-.53-1.55-1.23-2.06-2.12-.51-.88-.77-1.85-.77-2.91v-1.33c0-.1,.05-.16,.14-.16h3.26c.08,0,.11,.05,.11,.16v1.33c0,.63,.21,1.18,.64,1.64,.42,.46,.93,.69,1.53,.69s1.12-.23,1.54-.7c.42-.47,.64-1.01,.64-1.62,0-.71-.46-1.33-1.39-1.85-.15-.09-.35-.21-.59-.35-.24-.14-.53-.3-.86-.47-.33-.18-.65-.36-.96-.53-.31-.17-.61-.34-.91-.5-1.06-.62-1.84-1.4-2.36-2.34-.51-.94-.77-1.99-.77-3.17,0-1.08,.26-2.05,.79-2.92,.53-.86,1.22-1.54,2.07-2.05,.85-.51,1.78-.76,2.78-.76s1.97,.25,2.83,.76c.86,.52,1.55,1.21,2.06,2.07s.77,1.82,.77,2.89v2.38c0,.08-.04,.11-.11,.11h-3.26c-.08,0-.11-.04-.11-.11l-.03-2.38c0-.68-.21-1.23-.64-1.66s-.93-.64-1.52-.64-1.1,.23-1.53,.68-.64,.99-.64,1.61,.13,1.16,.4,1.59c.27,.42,.76,.83,1.48,1.22,.08,.04,.25,.13,.52,.28,.27,.15,.58,.32,.91,.5,.33,.18,.64,.35,.91,.5,.27,.15,.44,.23,.5,.26,.96,.54,1.72,1.2,2.29,1.98,.56,.78,.84,1.75,.84,2.89s-.25,2.1-.76,2.97c-.52,.88-1.21,1.57-2.07,2.08-.86,.51-1.81,.76-2.86,.76Z" />
            <path class="cls-1"
                d="M578.15,285.35h-9.37c-.08,0-.11-.05-.11-.14l.03-19.92c0-.08,.04-.11,.11-.11h9.32c.08,0,.11,.05,.11,.14v3.24c0,.08-.04,.11-.11,.11h-5.95v4.53h5.95c.08,0,.11,.04,.11,.11l.03,3.29c0,.08-.04,.11-.11,.11h-5.98v5.07h5.98c.08,0,.11,.05,.11,.14v3.31c0,.08-.04,.11-.11,.11Z" />
            <path class="cls-1"
                d="M586.89,285.35h-3.33c-.07,0-.1-.04-.1-.11l.03-8.24-3.88-11.71c-.02-.08,0-.11,.08-.11h3.23c.09,0,.15,.04,.17,.11l2.14,7.8,2.18-7.8c.02-.08,.07-.11,.14-.11h3.26c.08,0,.1,.04,.08,.11l-3.92,11.6,.03,8.35c0,.08-.04,.11-.11,.11Z" />
        </g>
    </g>
</svg>