<?xml version="1.0" encoding="UTF-8"?>
<svg id="uuid-e201a5a4-dc81-4896-bc88-7c79c1660619" viewBox="0 0 657.91 1000.14"
    xmlns="http://www.w3.org/2000/svg">
    <defs>
        <style>
            .uuid-d6ae8d89-4865-4928-bca9-93784a318532{stroke:#d7d7d6;}.uuid-d6ae8d89-4865-4928-bca9-93784a318532,.uuid-216e5a37-b3d6-46ec-81f9-f05f6724e61d{fill:none;stroke-miterlimit:10;stroke-width:4px;}.uuid-216e5a37-b3d6-46ec-81f9-f05f6724e61d{stroke:#9f9f9e;}
        </style>
    </defs>
    <g id="uuid-8bf1342f-b57c-4734-8bcb-1d73bc605064">
        <rect class="uuid-d6ae8d89-4865-4928-bca9-93784a318532"
            height="106.44" id="uuid-a1562636-bc2c-453c-8b40-912972fc333f" width="82.84" x="181.63"
            y="733.67" />
        <rect class="uuid-d6ae8d89-4865-4928-bca9-93784a318532"
            height="155.33" id="uuid-051e66dd-05a6-45d7-b246-e54511b085e6" width="82.84" x="181.63"
            y="578.35" />
        <rect class="uuid-d6ae8d89-4865-4928-bca9-93784a318532"
            height="153.76" id="uuid-1a4d84db-964b-4b9f-9faf-a986fbce02f4" width="82.84" x="181.63"
            y="424.58" />
        <rect class="uuid-d6ae8d89-4865-4928-bca9-93784a318532"
            height="98.07" id="uuid-a2735baa-6859-456d-9e93-bdb55ceedf26" width="82.84" x="181.63"
            y="839.86" />
        <rect class="uuid-d6ae8d89-4865-4928-bca9-93784a318532"
            height="79.45" id="uuid-2168bd54-d160-489b-bd15-46f43e213c6c" width="99.14" x="314.72"
            y="906.69" />
        <rect class="uuid-d6ae8d89-4865-4928-bca9-93784a318532"
            height="94.34" id="uuid-219eccfd-8f60-49d4-992f-a0a52b58994a" width="105.22" x="314.38"
            y="786.13" />
        <rect class="uuid-d6ae8d89-4865-4928-bca9-93784a318532"
            height="97.9" id="uuid-7c56125d-e3a2-483b-9b65-46470d85a690" width="88.95" x="482.44"
            y="840.03" />
        <rect class="uuid-d6ae8d89-4865-4928-bca9-93784a318532"
            height="106.42" id="uuid-858dffc9-1923-4347-bf2b-a5e75ad8670a" width="88.95" x="482.44"
            y="733.67" />
        <rect class="uuid-d6ae8d89-4865-4928-bca9-93784a318532"
            height="102.37" id="uuid-98a8b60e-59f1-4cd7-9c4d-c7ede308ff18" width="88.95" x="482.44"
            y="630.55" />
        <rect class="uuid-d6ae8d89-4865-4928-bca9-93784a318532"
            height="102.62" id="uuid-14d099c1-eb16-4f24-a2ff-e41ef3bf9890" width="88.95" x="482.44"
            y="527.93" />
        <rect class="uuid-d6ae8d89-4865-4928-bca9-93784a318532"
            height="104.03" id="uuid-ed53c717-0f37-40d8-ab46-338d75a54c4a" width="88.95" x="482.44"
            y="423.9" />
        <polygon class="uuid-d6ae8d89-4865-4928-bca9-93784a318532"
            id="uuid-a56c0d09-3ace-4ce9-9363-7b33316487ae"
            points="342.02 439.8 342.02 452.02 308.04 458.39 308.04 640.6 321.17 640.6 321.17 662.62 423.28 662.62 423.28 640.6 441.24 640.6 441.24 458.39 407.38 452.02 407.38 439.8 342.02 439.8" />
    </g>
    <path class="uuid-216e5a37-b3d6-46ec-81f9-f05f6724e61d"
        d="M310.78,214.62l-.17,13.04H13.91v133.77H180.27v26.48h126.98v36.67h-125.62V937.93h82.84v-31.24h50.25v79.45h99.14v-79.45h68.58v31.24h88.95V423.9h-123.58v-61.11h200.31V224.95h-200.31V4.94h-133.09V175.69h-5.72c-10.75,0-19.47,8.71-19.47,19.47h0c0,10.75,8.71,19.47,19.47,19.47h1.78Z"
        id="uuid-37a4197f-0d05-4714-81b7-174b71b3df1a" />
    <polygon class="uuid-216e5a37-b3d6-46ec-81f9-f05f6724e61d"
        id="uuid-efde16d5-2938-41a7-bb45-3736a5ec5600"
        points="464.53 880.47 419.6 880.47 419.6 786.13 314.38 786.13 314.38 880.47 282.72 880.47 282.72 640.6 321.17 640.6 321.17 662.51 423.28 662.51 423.28 640.6 464.53 640.6 464.53 880.47" />
</svg>