<?xml version="1.0" encoding="utf-8"?><!-- Generator: Adobe Illustrator 26.3.1, SVG Export Plug-In . SVG Version: 6.00 Build 0)  -->
<svg style="enable-background:new 0 0 96 96;" id="Layer_1" version="1.1" viewBox="0 0 96 96" x="0px"
    xmlns="http://www.w3.org/2000/svg" y="0px" xml:space="preserve">
<style type="text/css">
	.st0{fill:#9F9F9E;}
	.st1{fill:#E8463C;}
	.st2{fill:none;}
	.st3{fill:#444443;}
</style>
    <path class="st0" d="M85.4,96H10.6C4.7,96,0,91.3,0,85.4V10.6C0,4.7,4.7,0,10.6,0h74.9C91.3,0,96,4.7,96,10.6v74.9
	C96,91.3,91.3,96,85.4,96z" />
    <path class="st1" d="M70.2,46.2c8.3-16.2-2.6-36.1-20.8-37c-0.5,0-0.9,0-1.4,0s-0.9,0-1.4,0c-18.2,0.9-29.1,20.8-20.8,37L46,85.7
	c0.8,1.7,3.2,1.7,4,0L70.2,46.2z" />
    <path class="st2" d="M50.1,96" />
    <path class="st2" d="M50.1,0" />
    <path class="st3" d="M60.3,40.6c4.6-9-1.4-20.1-11.6-20.6c-0.3,0-0.5,0-0.8,0s-0.5,0-0.8,0C37.1,20.5,31,31.5,35.7,40.6l11.2,22
	c0.5,0.9,1.8,0.9,2.3,0L60.3,40.6z" />
</svg>
